PathFileType	4	(X/Y/Z)	C:\Users\WrightLab\Desktop\Jo\P1.2Trial6.trc
DataRate	CameraRate	NumFrames	NumMarkers	Units	OrigDataRate	OrigDataStartFrame	OrigNumFrames
100.00	100.00	       68	19	mm	100.00	475	       542
Frame#	Time	Headset_Front			Headset_Back			Headset_Left			Headset_Right			Left_Shoulder			Right_Shoulder			Sternum			C7			Left Elbow			Right Elbow			Left Wrist			Right Wrist			Left ASIS			Right ASIS			S2			Left Knee			Right Knee			Left Ankle			Right Ankle			
		X1	Y1	Z1	X2	Y2	Z2	X3	Y3	Z3	X4	Y4	Z4	X5	Y5	Z5	X6	Y6	Z6	X7	Y7	Z7	X8	Y8	Z8	X9	Y9	Z9	X10	Y10	Z10	X11	Y11	Z11	X12	Y12	Z12	X13	Y13	Z13	X14	Y14	Z14	X15	Y15	Z15	X16	Y16	Z16	X17	Y17	Z17	X18	Y18	Z18	X19	Y19	Z19	

475	4.740																																																	-422.32672	464.32071	2177.74243	-516.46234	192.88107	2599.92969				
476	4.750																																																	-422.79224	465.19427	2179.06787	-510.62222	186.51630	2601.49585				
477	4.760																																																	-423.94574	466.66016	2177.24365	-504.78317	181.36906	2603.04004				
478	4.770																																																	-424.53482	466.48553	2184.58252	-502.27402	179.06465	2606.74365				
479	4.780																																																	-425.32880	466.88028	2188.24585	-502.42404	177.63864	2610.12012				
480	4.790																																																	-426.52216	467.43671	2190.33496	-503.80273	177.49428	2613.94556				
481	4.800																																																	-427.58051	469.33231	2195.77319	-504.82968	176.34079	2615.94751				
482	4.810																																																	-427.80801	469.55331	2198.09839	-506.11072	176.15640	2617.78760				
483	4.820																																																				-507.31738	175.75587	2618.97949				
484	4.830																																																				-507.97394	174.91913	2619.12817				
485	4.840																																																				-508.36523	173.41016	2619.34766				
486	4.850																																																				-508.60196	171.54948	2619.24536				
487	4.860																																																				-508.27979	169.38072	2618.74927				
488	4.870																																																				-508.54037	167.70856	2619.31982				
489	4.880																																																				-508.95566	166.66312	2619.41333				
490	4.890																																																				-509.01172	165.04292	2619.02100				
491	4.900																																																				-509.05359	163.48839	2618.63086				
492	4.910																																																				-509.14633	162.82231	2618.60864				
493	4.920																																																				-509.03592	162.02669	2618.19360				
494	4.930																																																				-508.67993	160.64491	2618.00928				
495	4.940																																																				-508.75931	159.83975	2618.64917				
496	4.950																																																				-509.00397	159.15343	2619.04883				
497	4.960																																																				-509.34763	158.39984	2619.27808				
498	4.970																																																				-509.60626	157.78952	2618.89478				
499	4.980																																																				-509.98975	156.99539	2618.26392				
500	4.990																																																				-510.89182	156.79875	2618.77100				
501	5.000																																																				-511.24631	156.15070	2618.13940				
502	5.010																																																				-512.01691	156.25368	2618.20776				
503	5.020																																																				-512.38647	155.68010	2617.49243				
504	5.030																																																				-512.73480	155.18066	2616.79517				
505	5.040																																																				-513.23560	154.94739	2615.91821				
506	5.050																																																				-514.00360	155.22705	2615.37305				
507	5.060																																																				-514.70758	155.06206	2614.95581				
508	5.070																																																				-515.48535	155.29303	2614.45166				
509	5.080																																																				-515.99945	154.47420	2613.47070				
510	5.090																																																				-517.11346	154.58537	2612.71655				
511	5.100																																																				-518.18481	154.35823	2611.64233				
512	5.110																																																				-518.74664	153.20236	2609.90210				
513	5.120																																																				-520.26147	153.32338	2609.25024				
514	5.130																																																				-521.49725	152.18581	2607.47388				
515	5.140																																																				-522.58453	150.93690	2605.56885				
516	5.150																																																				-524.26215	149.91145	2603.80103				
517	5.160																																																										
518	5.170																																																										
519	5.180																																																										
520	5.190																																																										
521	5.200																																																										
522	5.210																																																										
523	5.220																																																										
524	5.230																																																										
525	5.240																																																										
526	5.250																																																										
527	5.260																																																										
528	5.270																																																										
529	5.280																																																										
530	5.290																																																										
531	5.300																																																										
532	5.310																																																										
533	5.320																																																										
534	5.330																																																										
535	5.340																																																										
536	5.350																																																										
537	5.360																																																										
538	5.370																																																										
539	5.380																																																										
540	5.390																																																										
541	5.400																																																										
542	5.410																																																										
